<svg width="264" height="24" viewBox="0 0 264 24" fill="none" xmlns="http://www.w3.org/2000/svg">
<g clip-path="url(#clip0_1121_126)">
<path d="M14 13.5H16.5L17.5 9.5H14V7.5C14 6.47 14 5.5 16 5.5H17.5V2.14C17.174 2.097 15.943 2 14.643 2C11.928 2 10 3.657 10 6.7V9.5H7V13.5H10V22H14V13.5Z" fill="black"/>
</g>
<g clip-path="url(#clip1_1121_126)">
<path d="M70.1643 5.65593C69.4008 5.99362 68.5912 6.2154 67.7623 6.31393C68.636 5.79136 69.29 4.96894 69.6023 3.99993C68.7823 4.48793 67.8833 4.82993 66.9463 5.01493C66.3169 4.34151 65.4826 3.89489 64.5732 3.74451C63.6638 3.59413 62.7302 3.74842 61.9175 4.18338C61.1048 4.61834 60.4586 5.30961 60.0794 6.14972C59.7001 6.98983 59.609 7.93171 59.8202 8.82893C58.1574 8.74558 56.5306 8.31345 55.0455 7.56059C53.5605 6.80773 52.2504 5.75097 51.2002 4.45893C50.8285 5.09738 50.6332 5.82315 50.6342 6.56193C50.6342 8.01193 51.3723 9.29293 52.4943 10.0429C51.8303 10.022 51.1809 9.84271 50.6003 9.51993V9.57193C50.6005 10.5376 50.9346 11.4735 51.5461 12.221C52.1576 12.9684 53.0087 13.4814 53.9552 13.6729C53.3389 13.84 52.6926 13.8646 52.0653 13.7449C52.3321 14.5762 52.8523 15.3031 53.5528 15.824C54.2534 16.3449 55.0994 16.6337 55.9722 16.6499C55.1047 17.3313 54.1114 17.8349 53.0491 18.1321C51.9868 18.4293 50.8764 18.5142 49.7812 18.3819C51.6929 19.6114 53.9183 20.264 56.1912 20.2619C63.8842 20.2619 68.0913 13.8889 68.0913 8.36193C68.0913 8.18193 68.0863 7.99993 68.0783 7.82193C68.8971 7.23009 69.6038 6.49695 70.1653 5.65693L70.1643 5.65593Z" fill="black"/>
</g>
<g clip-path="url(#clip2_1121_126)">
<path d="M107.871 21.764C106.681 21.764 105.887 21.203 105.178 20.708C104.675 20.351 104.202 20.012 103.645 19.918C103.38 19.8724 103.111 19.8503 102.842 19.852C102.37 19.852 101.995 19.923 101.728 19.977C101.558 20.007 101.416 20.035 101.304 20.035C101.188 20.035 101.041 20.003 100.984 19.807C100.934 19.647 100.903 19.495 100.872 19.348C100.792 18.978 100.725 18.751 100.586 18.728C99.0968 18.501 98.2058 18.158 98.0318 17.752C98.0178 17.708 98.0008 17.662 98.0008 17.627C97.9908 17.502 98.0808 17.4 98.2058 17.377C99.3868 17.181 100.448 16.553 101.344 15.519C102.04 14.716 102.379 13.94 102.41 13.856C102.41 13.846 102.419 13.846 102.419 13.846C102.589 13.495 102.624 13.196 102.521 12.951C102.33 12.491 101.696 12.295 101.264 12.161C101.153 12.131 101.059 12.095 100.979 12.068C100.609 11.921 99.9928 11.608 100.074 11.176C100.132 10.864 100.546 10.641 100.885 10.641C100.979 10.641 101.059 10.655 101.125 10.691C101.505 10.864 101.848 10.953 102.142 10.953C102.508 10.953 102.682 10.815 102.726 10.771C102.716 10.5732 102.705 10.3755 102.691 10.178C102.601 8.813 102.499 7.119 102.931 6.148C104.229 3.241 106.984 3.008 107.8 3.008L108.156 3H108.206C109.021 3 111.776 3.227 113.074 6.139C113.511 7.11 113.404 8.809 113.314 10.169L113.306 10.236C113.296 10.418 113.283 10.592 113.274 10.771C113.319 10.806 113.479 10.94 113.809 10.944C114.095 10.936 114.407 10.842 114.763 10.681C114.861 10.6384 114.967 10.6159 115.075 10.615C115.2 10.615 115.325 10.645 115.432 10.681H115.441C115.74 10.793 115.936 11.002 115.936 11.221C115.945 11.426 115.784 11.738 115.022 12.046C114.942 12.076 114.848 12.113 114.737 12.139C114.313 12.269 113.68 12.474 113.479 12.929C113.368 13.169 113.413 13.477 113.582 13.824C113.582 13.834 113.591 13.834 113.591 13.834C113.64 13.958 114.928 16.883 117.795 17.36C117.853 17.3699 117.906 17.4006 117.944 17.4466C117.982 17.4926 118.002 17.5506 118 17.61C118 17.654 117.991 17.699 117.969 17.739C117.795 18.149 116.912 18.483 115.414 18.715C115.276 18.737 115.209 18.965 115.129 19.335C115.097 19.4892 115.059 19.6423 115.017 19.794C114.973 19.941 114.879 20.021 114.719 20.021H114.696C114.594 20.021 114.456 20.008 114.273 19.972C113.906 19.8939 113.532 19.855 113.158 19.856C112.895 19.856 112.623 19.879 112.356 19.923C111.803 20.013 111.326 20.356 110.822 20.713C110.105 21.203 109.307 21.764 108.125 21.764H107.871Z" fill="black"/>
</g>
<g clip-path="url(#clip3_1121_126)">
<path d="M156 2C158.717 2 159.056 2.01 160.122 2.06C161.187 2.11 161.912 2.277 162.55 2.525C163.21 2.779 163.766 3.123 164.322 3.678C164.83 4.1779 165.224 4.78259 165.475 5.45C165.722 6.087 165.89 6.813 165.94 7.878C165.987 8.944 166 9.283 166 12C166 14.717 165.99 15.056 165.94 16.122C165.89 17.187 165.722 17.912 165.475 18.55C165.225 19.2178 164.831 19.8226 164.322 20.322C163.822 20.8303 163.217 21.2238 162.55 21.475C161.913 21.722 161.187 21.89 160.122 21.94C159.056 21.987 158.717 22 156 22C153.283 22 152.944 21.99 151.878 21.94C150.813 21.89 150.088 21.722 149.45 21.475C148.782 21.2245 148.178 20.8309 147.678 20.322C147.169 19.8222 146.776 19.2175 146.525 18.55C146.277 17.913 146.11 17.187 146.06 16.122C146.013 15.056 146 14.717 146 12C146 9.283 146.01 8.944 146.06 7.878C146.11 6.812 146.277 6.088 146.525 5.45C146.775 4.78218 147.169 4.17732 147.678 3.678C148.178 3.16923 148.782 2.77573 149.45 2.525C150.088 2.277 150.812 2.11 151.878 2.06C152.944 2.013 153.283 2 156 2ZM156 7C154.674 7 153.402 7.52678 152.464 8.46447C151.527 9.40215 151 10.6739 151 12C151 13.3261 151.527 14.5979 152.464 15.5355C153.402 16.4732 154.674 17 156 17C157.326 17 158.598 16.4732 159.536 15.5355C160.473 14.5979 161 13.3261 161 12C161 10.6739 160.473 9.40215 159.536 8.46447C158.598 7.52678 157.326 7 156 7ZM162.5 6.75C162.5 6.41848 162.368 6.10054 162.134 5.86612C161.899 5.6317 161.582 5.5 161.25 5.5C160.918 5.5 160.601 5.6317 160.366 5.86612C160.132 6.10054 160 6.41848 160 6.75C160 7.08152 160.132 7.39946 160.366 7.63388C160.601 7.8683 160.918 8 161.25 8C161.582 8 161.899 7.8683 162.134 7.63388C162.368 7.39946 162.5 7.08152 162.5 6.75ZM156 9C156.796 9 157.559 9.31607 158.121 9.87868C158.684 10.4413 159 11.2044 159 12C159 12.7956 158.684 13.5587 158.121 14.1213C157.559 14.6839 156.796 15 156 15C155.204 15 154.441 14.6839 153.879 14.1213C153.316 13.5587 153 12.7956 153 12C153 11.2044 153.316 10.4413 153.879 9.87868C154.441 9.31607 155.204 9 156 9Z" fill="black"/>
</g>
<g clip-path="url(#clip4_1121_126)">
<path d="M210.335 18.339H207.67V14.162C207.67 13.166 207.65 11.884 206.28 11.884C204.891 11.884 204.679 12.968 204.679 14.089V18.339H202.013V9.75H204.573V10.92H204.608C204.966 10.246 205.836 9.533 207.136 9.533C209.836 9.533 210.336 11.311 210.336 13.624V18.339H210.335ZM199.003 8.575C198.8 8.57526 198.598 8.53537 198.41 8.45761C198.222 8.37984 198.051 8.26574 197.907 8.12184C197.764 7.97793 197.65 7.80706 197.572 7.61901C197.494 7.43097 197.455 7.22944 197.455 7.026C197.455 6.71983 197.546 6.4206 197.716 6.16615C197.887 5.91169 198.129 5.71343 198.412 5.59645C198.694 5.47947 199.006 5.44902 199.306 5.50894C199.606 5.56886 199.882 5.71648 200.098 5.93311C200.315 6.14974 200.462 6.42566 200.521 6.72598C200.581 7.0263 200.55 7.33753 200.433 7.62032C200.315 7.9031 200.117 8.14474 199.862 8.31467C199.608 8.4846 199.308 8.5752 199.002 8.575H199.003ZM200.339 18.339H197.666V9.75H200.34V18.339H200.339ZM211.67 3H196.329C195.593 3 195 3.58 195 4.297V19.703C195 20.42 195.594 21 196.328 21H211.666C212.4 21 213 20.42 213 19.703V4.297C213 3.58 212.4 3 211.666 3H211.669H211.67Z" fill="black"/>
</g>
<g clip-path="url(#clip5_1121_126)">
<path d="M252 2C246.475 2 242 6.475 242 12C241.999 14.0993 242.659 16.1456 243.886 17.8487C245.114 19.5517 246.846 20.8251 248.838 21.488C249.338 21.575 249.525 21.275 249.525 21.012C249.525 20.775 249.512 19.988 249.512 19.15C247 19.613 246.35 18.538 246.15 17.975C246.037 17.687 245.55 16.8 245.125 16.562C244.775 16.375 244.275 15.912 245.112 15.9C245.9 15.887 246.462 16.625 246.65 16.925C247.55 18.437 248.988 18.012 249.562 17.75C249.65 17.1 249.912 16.663 250.2 16.413C247.975 16.163 245.65 15.3 245.65 11.475C245.65 10.387 246.037 9.488 246.675 8.787C246.575 8.537 246.225 7.512 246.775 6.137C246.775 6.137 247.612 5.875 249.525 7.163C250.339 6.93706 251.18 6.82334 252.025 6.825C252.875 6.825 253.725 6.937 254.525 7.162C256.437 5.862 257.275 6.138 257.275 6.138C257.825 7.513 257.475 8.538 257.375 8.788C258.012 9.488 258.4 10.375 258.4 11.475C258.4 15.313 256.063 16.163 253.838 16.413C254.2 16.725 254.513 17.325 254.513 18.263C254.513 19.6 254.5 20.675 254.5 21.013C254.5 21.275 254.688 21.587 255.188 21.487C257.173 20.8168 258.898 19.541 260.12 17.8392C261.342 16.1373 261.999 14.0951 262 12C262 6.475 257.525 2 252 2Z" fill="black"/>
</g>
<defs>
<clipPath id="clip0_1121_126">
<rect width="24" height="24" fill="white"/>
</clipPath>
<clipPath id="clip1_1121_126">
<rect width="24" height="24" fill="white" transform="translate(48)"/>
</clipPath>
<clipPath id="clip2_1121_126">
<rect width="24" height="24" fill="white" transform="translate(96)"/>
</clipPath>
<clipPath id="clip3_1121_126">
<rect width="24" height="24" fill="white" transform="translate(144)"/>
</clipPath>
<clipPath id="clip4_1121_126">
<rect width="24" height="24" fill="white" transform="translate(192)"/>
</clipPath>
<clipPath id="clip5_1121_126">
<rect width="24" height="24" fill="white" transform="translate(240)"/>
</clipPath>
</defs>
</svg>
